<?xml version="1.0" encoding="UTF-8"?>
<svg id="Camada_1" data-name="Camada 1" xmlns="http://www.w3.org/2000/svg" viewBox="0 0 1080 1080">
  <defs>
    <style>
      .cls-1 {
        fill: #fff;
      }

      .cls-2 {
        fill: #38a0da;
      }
    </style>
  </defs>
  <path class="cls-1" d="M1031.89,806.97v63.46c0,53.62-27.38,100.85-68.91,128.45-15.54,10.33-33.08,17.93-51.88,22.07H347.13c-166.55-24.25-294.47-167.63-294.47-340.92V199.48c0-85.12,69.02-154.14,154.14-154.14h63.69v587.55c0,96.13,77.95,174.08,174.1,174.08h587.3Z"/>
  <path class="cls-1" d="M607.56,261.15v196.97c0,10.39,8.43,18.82,18.82,18.82h405.51v212.65H482.68c-51.71,0-93.63-41.92-93.63-93.63V46.71h480.57c21.02,0,41.09,4,59.52,11.26.5.2.99.39,1.49.6,11.51,4.9,22.35,11.04,32.35,18.31,41.74,30.22,68.91,79.37,68.91,134.86v49.41h-424.33Z"/>
  <rect class="cls-2" x="668.32" y="322.8" width="362.67" height="83.42"/>
</svg>